<svg width="38" height="38" viewBox="0 0 38 38" fill="none" xmlns="http://www.w3.org/2000/svg">
<path d="M5 27.5L6 28H8L17 33.5C17.8 35.5 18.6667 36 19 36C21 36.4 20.8333 34.5 20.5 33.5L30 28H31.3258C32.3864 28.4 33.2172 27.5 33.5 27L32.5 25L32 24.5V13H32.5L33.5 11.5C33.5 9.5 31.8333 9.66667 31 10H30L20.5 4L20 2.5L19.5 2H18.5L17.5 3V4.5L9 9.5L7.5 10L6 9.5L5 10.5V12L6 13.5V25L5.5 25.5L5 26.5V27.5Z" fill="white"/>
<path d="M34.0678 11.2239C34.0678 9.9783 33.0511 8.96473 31.8016 8.96473C31.2184 8.96473 30.6616 9.19518 30.2493 9.58521L21.1739 4.0731C21.2344 3.87025 21.2663 3.65851 21.2663 3.44312C21.2663 2.19747 20.2495 1.1839 19 1.1839C17.7504 1.1839 16.7337 2.19747 16.7337 3.44312C16.7337 3.6593 16.7659 3.87169 16.8256 4.07335L7.74972 9.58575C7.33601 9.19442 6.78042 8.96473 6.19841 8.96473C4.94887 8.96473 3.93213 9.9783 3.93213 11.2239C3.93213 12.2611 4.64406 13.128 5.60466 13.3895V24.492C4.64406 24.7535 3.93213 25.6205 3.93213 26.6576C3.93213 27.9032 4.94887 28.9168 6.19841 28.9168C6.75527 28.9168 7.2815 28.713 7.68398 28.3601L16.7999 33.9017C16.7573 34.0745 16.7337 34.2544 16.7337 34.4384C16.7337 35.6843 17.7504 36.6979 19 36.6979C20.2495 36.6979 21.2663 35.6843 21.2663 34.4384C21.2663 34.2534 21.2426 34.0727 21.2008 33.9012L30.3174 28.3593C30.722 28.7142 31.2465 28.9168 31.8016 28.9168C33.0511 28.9168 34.0678 27.9032 34.0678 26.6576C34.0678 25.6205 33.3559 24.7535 32.3953 24.492V13.3895C33.3559 13.128 34.0678 12.2611 34.0678 11.2239ZM31.8016 10.1485C32.3965 10.1485 32.8803 10.6309 32.8803 11.2239C32.8803 11.8141 32.3965 12.2942 31.8016 12.2942C31.4281 12.2942 31.0791 12.0991 30.886 11.7786C30.7811 11.6095 30.728 11.4228 30.728 11.2239C30.728 11.0251 30.7811 10.8387 30.8904 10.6627C31.0808 10.3456 31.4302 10.1485 31.8016 10.1485ZM31.2078 14.2026L24.5618 18.2406C24.2817 18.4109 24.1933 18.775 24.3637 19.0542C24.4756 19.2371 24.6711 19.338 24.8714 19.338C24.9766 19.338 25.0833 19.3103 25.1799 19.2516L31.2078 15.5891V17.352L24.5618 21.39C24.2817 21.5602 24.1933 21.9244 24.3637 22.2036C24.4756 22.3865 24.6711 22.4874 24.8714 22.4874C24.9766 22.4874 25.0833 22.4597 25.1799 22.401L31.2078 18.7385V20.5011L24.5618 24.5391C24.2817 24.7093 24.1933 25.0735 24.3637 25.3527C24.4756 25.5356 24.6711 25.6365 24.8714 25.6365C24.9766 25.6365 25.0833 25.6087 25.1799 25.5501L31.2078 21.8876V23.6505L24.5618 27.6885C24.2817 27.8587 24.1933 28.2229 24.3637 28.5021C24.4756 28.685 24.6711 28.7859 24.8714 28.7859C24.9766 28.7859 25.0833 28.7581 25.1799 28.6995L29.6565 25.9795C29.5877 26.1949 29.5405 26.4198 29.5405 26.6576C29.5405 26.905 29.5831 27.1455 29.6594 27.3726L20.622 32.8664C20.3403 32.5751 19.9854 32.3654 19.5937 32.2591V21.1701C20.5543 20.9081 21.2663 20.0391 21.2663 18.9996C21.2663 18.7858 21.2346 18.5748 21.1752 18.3721L30.2512 12.8616C30.5202 13.1147 30.8494 13.2994 31.2078 13.3972V14.2026ZM17.3752 32.8647L8.34024 27.3724C8.41707 27.1443 8.45947 26.9044 8.45947 26.6576C8.45947 25.621 7.74979 24.7544 6.79216 24.4925V13.3973C7.15155 13.2994 7.4814 13.1147 7.74979 12.8622L16.8248 18.3721C16.7654 18.5751 16.7337 18.786 16.7337 18.9996C16.7337 20.0391 17.4456 20.908 18.4062 21.1701V32.2588C18.0116 32.3654 17.6547 32.5754 17.3752 32.8647ZM19.9208 18.4452C20.0257 18.6143 20.0788 18.8007 20.0788 18.9996C20.0788 19.5926 19.5949 20.075 19 20.075C18.4051 20.075 17.9212 19.5926 17.9212 18.9996C17.9212 18.8007 17.9743 18.6143 18.0809 18.4426C18.2778 18.1213 18.6214 17.9294 19 17.9294C19.3786 17.9294 19.7222 18.1213 19.9208 18.4452ZM19 2.3677C19.5949 2.3677 20.0788 2.85006 20.0788 3.44312C20.0788 3.64196 20.0254 3.82577 19.9115 4.0041C19.7204 4.32143 19.3711 4.51854 19 4.51854C18.6289 4.51854 18.2795 4.32143 18.0798 3.99022C17.9745 3.82577 17.9212 3.64196 17.9212 3.44312C17.9212 2.85006 18.4051 2.3677 19 2.3677ZM17.4478 5.08183C17.455 5.08866 17.4639 5.09339 17.4712 5.10014C17.5561 5.17829 17.6472 5.24823 17.7426 5.31239C17.769 5.33024 17.7952 5.34765 17.8225 5.36434C17.9296 5.43005 18.0402 5.48966 18.1569 5.53692C18.1641 5.53981 18.1717 5.54147 18.179 5.54432C18.2897 5.58786 18.4045 5.62026 18.5214 5.64598C18.5534 5.65303 18.5851 5.65942 18.6174 5.66509C18.7432 5.68706 18.8705 5.70234 19 5.70234C19.1298 5.70234 19.2574 5.68699 19.3833 5.66499C19.4149 5.65946 19.4459 5.65324 19.4772 5.64638C19.5998 5.61961 19.7203 5.58605 19.8359 5.53992C19.8372 5.53937 19.8385 5.53908 19.8398 5.53858C19.9616 5.4897 20.0767 5.42771 20.1877 5.3591C20.2072 5.347 20.226 5.33461 20.2451 5.32193C20.354 5.25003 20.4583 5.17182 20.553 5.0823L29.6307 10.5956C29.6298 10.5986 29.6296 10.6016 29.6287 10.6046C29.6097 10.6703 29.598 10.7379 29.5851 10.8052C29.5784 10.8403 29.568 10.8745 29.563 10.91C29.5483 11.0136 29.5405 11.1185 29.5405 11.2239C29.5405 11.3297 29.5483 11.4347 29.563 11.5385C29.5668 11.5653 29.5749 11.5911 29.5797 11.6178C29.5934 11.6944 29.6076 11.7709 29.6292 11.8454C29.6298 11.8477 29.63 11.85 29.6307 11.8523L20.5571 17.3612C20.5508 17.3551 20.5429 17.351 20.5365 17.345C20.4508 17.2657 20.3587 17.1954 20.2625 17.1308C20.2356 17.1128 20.2089 17.0952 20.1813 17.0784C20.0746 17.0133 19.9644 16.9542 19.848 16.9077C19.8425 16.9055 19.8366 16.9043 19.8312 16.9021C19.7189 16.8583 19.602 16.8261 19.4827 16.8005C19.4508 16.7937 19.4191 16.7875 19.3868 16.782C19.2601 16.7605 19.1317 16.7456 19 16.7456C18.8682 16.7456 18.7396 16.7606 18.6129 16.7821C18.5809 16.7875 18.5495 16.7936 18.5178 16.8004C18.3973 16.8262 18.279 16.8586 18.1657 16.903C18.1614 16.9047 18.1569 16.9056 18.1527 16.9073C18.0352 16.9542 17.9242 17.0137 17.8168 17.0794C17.7906 17.0954 17.7652 17.112 17.7397 17.1291C17.6401 17.1958 17.5445 17.2683 17.4562 17.3507C17.4521 17.3546 17.447 17.3572 17.4428 17.3612L8.36931 11.8523C8.37011 11.8496 8.37032 11.8467 8.37112 11.844C8.39058 11.7768 8.40261 11.7077 8.41566 11.6389C8.42207 11.6051 8.43211 11.5722 8.43697 11.5381C8.45168 11.4345 8.45947 11.3295 8.45947 11.2239C8.45947 11.1183 8.45164 11.0133 8.43697 10.9096C8.43309 10.8823 8.42483 10.856 8.41997 10.8289C8.40627 10.7527 8.39225 10.6768 8.37087 10.6028C8.37018 10.6005 8.37 10.598 8.36931 10.5956L17.4478 5.08183ZM5.11963 11.2239C5.11963 10.6309 5.6035 10.1485 6.19841 10.1485C6.56979 10.1485 6.91914 10.3456 7.11397 10.6696C7.21892 10.8387 7.27197 11.0251 7.27197 11.2239C7.27197 11.4228 7.21892 11.6095 7.10991 11.7855C6.92088 12.0991 6.57182 12.2942 6.19841 12.2942C5.6035 12.2942 5.11963 11.8141 5.11963 11.2239ZM6.19841 27.733C5.6035 27.733 5.11963 27.2506 5.11963 26.6576C5.11963 26.0674 5.6035 25.5874 6.19841 25.5874C6.79042 25.5874 7.27197 26.0674 7.27197 26.6576C7.27197 26.8761 7.20703 27.0839 7.07773 27.2686C6.88203 27.5593 6.55327 27.733 6.19841 27.733ZM19 35.5141C18.4051 35.5141 17.9212 35.0315 17.9212 34.4384C17.9212 34.2572 17.9638 34.0887 18.0557 33.9303C18.2419 33.5803 18.6037 33.363 19 33.363C19.3963 33.363 19.7581 33.5803 19.9556 33.9508C20.0361 34.0887 20.0788 34.2572 20.0788 34.4384C20.0788 35.0315 19.5949 35.5141 19 35.5141ZM32.8803 26.6576C32.8803 27.2506 32.3965 27.733 31.8016 27.733C31.4467 27.733 31.1179 27.5593 30.9156 27.2584C30.7929 27.0839 30.728 26.8761 30.728 26.6576C30.728 26.0674 31.2095 25.5874 31.8016 25.5874C32.3965 25.5874 32.8803 26.0674 32.8803 26.6576Z" fill="black"/>
</svg>
