<svg width="36" height="36" viewBox="0 0 36 36" fill="none" xmlns="http://www.w3.org/2000/svg">
<path d="M34.7201 8.68407C34.8605 8.66131 34.9882 8.58883 35.0797 8.47985C35.1713 8.37087 35.2206 8.23263 35.2188 8.09032V5.71532C35.2188 5.55784 35.1562 5.40682 35.0449 5.29547C34.9335 5.18412 34.7825 5.12157 34.6251 5.12157H30.8429C30.7492 5.12614 30.6577 5.15119 30.5748 5.19495C30.4919 5.2387 30.4196 5.30011 30.363 5.37483C30.3064 5.44955 30.2669 5.53578 30.2472 5.62743C30.2275 5.71909 30.2282 5.81394 30.2491 5.90532L29.8038 3.79157C29.572 2.93579 29.0638 2.18066 28.3583 1.64372C27.6527 1.10679 26.7895 0.818174 25.9029 0.822817H10.0972C9.20987 0.817869 8.34574 1.10626 7.6392 1.64314C6.93266 2.18002 6.42332 2.93531 6.19036 3.79157L5.75692 5.86969C5.77583 5.77882 5.77498 5.68495 5.75441 5.59445C5.73385 5.50394 5.69406 5.41892 5.63774 5.34514C5.58143 5.27137 5.5099 5.21057 5.42802 5.16687C5.34614 5.12317 5.25581 5.0976 5.16317 5.09188H1.37505C1.21758 5.09188 1.06655 5.15444 0.955205 5.26578C0.843855 5.37713 0.781299 5.52816 0.781299 5.68563V8.06063C0.779468 8.20295 0.828819 8.34118 0.920363 8.45017C1.01191 8.55915 1.13955 8.63162 1.28005 8.65438L5.03255 9.27782L4.91974 9.82407C4.23797 10.1634 3.65522 10.6729 3.22775 11.3031C2.80029 11.9334 2.54255 12.6633 2.47942 13.4222L2.16474 17.0263C2.1707 17.0415 2.1707 17.0585 2.16474 17.0738V20.6363C2.16474 21.1588 2.07567 22.2097 2.33692 22.6847H1.37505C1.21758 22.6847 1.06655 22.7472 0.955205 22.8586C0.843855 22.9699 0.781299 23.121 0.781299 23.2784V25.6534C0.781299 25.8109 0.843855 25.9619 0.955205 26.0733C1.06655 26.1846 1.21758 26.2472 1.37505 26.2472H3.21567L14.6276 28.2897L3.1563 30.3441C3.06982 30.361 2.98819 30.3969 2.91733 30.4493C2.84647 30.5017 2.78815 30.5692 2.74661 30.6469C2.71353 30.7057 2.6914 30.7701 2.6813 30.8369C2.66949 30.8736 2.66949 30.913 2.6813 30.9497C2.6813 30.9853 2.6813 31.0209 2.6813 31.0506C2.69191 31.1043 2.7099 31.1563 2.73474 31.205C2.77944 31.2826 2.84112 31.3491 2.91515 31.3995C2.98918 31.4498 3.07365 31.4828 3.16224 31.4959L13.2085 32.7844L3.19192 34.0313C3.03445 34.0509 2.89125 34.1324 2.79382 34.2576C2.69639 34.3829 2.65271 34.5418 2.67239 34.6992C2.69208 34.8567 2.77351 34.9999 2.89878 35.0973C3.02405 35.1948 3.18289 35.2384 3.34036 35.2188L18 33.3841L32.6597 35.2188C32.8172 35.2384 32.9761 35.1948 33.1013 35.0973C33.2266 34.9999 33.308 34.8567 33.3277 34.6992C33.3474 34.5418 33.3037 34.3829 33.2063 34.2576C33.1089 34.1324 32.9656 34.0509 32.8082 34.0313L22.7916 32.7844L32.8082 31.5316C32.8968 31.5185 32.9812 31.4855 33.0553 31.4351C33.1293 31.3847 33.191 31.3182 33.2357 31.2406C33.2605 31.1919 33.2785 31.1399 33.2891 31.0863C33.2891 31.0566 33.2891 31.0209 33.2891 30.9853C33.3009 30.9486 33.3009 30.9092 33.2891 30.8725C33.2764 30.8064 33.2544 30.7425 33.2238 30.6825C33.1823 30.6048 33.1239 30.5373 33.0531 30.4849C32.9822 30.4326 32.9006 30.3966 32.8141 30.3797L21.3726 28.2956L32.7844 26.2531H34.6251C34.7825 26.2531 34.9335 26.1906 35.0449 26.0792C35.1562 25.9679 35.2188 25.8169 35.2188 25.6594V23.2844C35.2188 23.1269 35.1562 22.9759 35.0449 22.8645C34.9335 22.7532 34.7825 22.6906 34.6251 22.6906H33.6632C33.9244 22.2216 33.8176 21.1647 33.8354 20.6422V17.0797C33.8294 17.0644 33.8294 17.0475 33.8354 17.0322L33.5207 13.4281C33.4519 12.6715 33.1896 11.9454 32.7591 11.3194C32.3287 10.6935 31.7444 10.1887 31.0626 9.85375L30.9497 9.3075L34.7201 8.68407ZM31.4366 6.30907H34.0313V7.60938L31.4366 8.03688V6.30907ZM4.56942 8.025L1.9688 7.5975V6.29719H4.56942V8.025ZM28.8301 30.8369L18 32.1847L7.17005 30.8369L18 28.8953L28.8301 30.8369ZM18 27.69L9.96067 26.2531H26.0394L18 27.69ZM34.0313 25.0656H1.9688V23.8781H34.0313V25.0656ZM9.62224 21.2478H26.3779C26.3264 21.7395 26.3852 22.2364 26.5501 22.7025H9.45005C9.61448 22.2363 9.6733 21.7395 9.62224 21.2478ZM21.9722 20.0603H14.0279V18.8075H21.9722V20.0603ZM32.3332 13.5291L32.6479 17.0916V21.8416C32.6479 22.0563 32.563 22.2623 32.4117 22.4147C32.2605 22.567 32.0551 22.6534 31.8404 22.655H28.3729C28.1582 22.6534 27.9528 22.567 27.8015 22.4147C27.6502 22.2623 27.5654 22.0563 27.5654 21.8416V21.2478H28.9132C29.0707 21.2478 29.2217 21.1853 29.333 21.0739C29.4444 20.9626 29.5069 20.8115 29.5069 20.6541C29.5069 20.4966 29.4444 20.3456 29.333 20.2342C29.2217 20.1229 29.0707 20.0603 28.9132 20.0603H23.1597V18.2138C23.1597 18.0563 23.0972 17.9053 22.9858 17.7939C22.8745 17.6826 22.7235 17.62 22.566 17.62H13.4341C13.2766 17.62 13.1256 17.6826 13.0143 17.7939C12.9029 17.9053 12.8404 18.0563 12.8404 18.2138V20.0603H7.08693C6.92945 20.0603 6.77843 20.1229 6.66708 20.2342C6.55573 20.3456 6.49317 20.4966 6.49317 20.6541C6.49317 20.8115 6.55573 20.9626 6.66708 21.0739C6.77843 21.1853 6.92945 21.2478 7.08693 21.2478H8.43474V21.8891C8.43474 22.1038 8.34986 22.3098 8.19859 22.4622C8.04732 22.6145 7.84194 22.7009 7.62724 22.7025H4.15974C3.94503 22.7009 3.73965 22.6145 3.58838 22.4622C3.43712 22.3098 3.35223 22.1038 3.35224 21.8891V17.1391L3.66692 13.5766C3.73846 12.7629 4.1134 12.0059 4.71728 11.4559C5.32117 10.9059 6.10982 10.6032 6.92661 10.6078H29.0735C29.8865 10.6027 30.6721 10.9021 31.2754 11.4472C31.8787 11.9922 32.256 12.7434 32.3332 13.5528V13.5291ZM6.92661 9.37282H6.23193L7.34818 4.0825C7.51752 3.48589 7.8784 2.96154 8.37519 2.59029C8.87198 2.21904 9.47709 2.0215 10.0972 2.02813H25.9029C26.5192 2.02036 27.1211 2.2147 27.6164 2.58141C28.1118 2.94813 28.4735 3.46704 28.646 4.05875L29.7682 9.4025H6.92661V9.37282Z" fill="black"/>
<path d="M23.7893 14.2594C23.2371 15.5241 24.5077 16.9432 25.7962 16.9076H29.6259C30.214 16.8745 30.765 16.6091 31.1575 16.1699C31.55 15.7306 31.7519 15.1534 31.7188 14.5652C31.6858 13.9771 31.4204 13.4261 30.9811 13.0336C30.5419 12.6411 29.9646 12.4392 29.3765 12.4723L24.864 13.3866C24.6274 13.4338 24.4059 13.538 24.2187 13.6901C24.0314 13.8422 23.884 14.0376 23.7893 14.2594ZM25.0956 14.5504L29.5784 13.6419C30.8727 13.6419 30.8846 15.6963 29.6259 15.7201H25.7962C25.6336 15.7198 25.4738 15.6776 25.3324 15.5975C25.1909 15.5174 25.0725 15.4022 24.9887 15.2629C24.8165 15.0313 24.7452 14.6573 25.1252 14.5504H25.0956Z" fill="black"/>
<path d="M11.4686 13.3865L6.95611 12.4721H6.8908C3.92205 12.3178 3.79736 16.8243 6.71267 16.9134H10.5424C12.4958 16.9668 13.6714 14.0159 11.4686 13.3865ZM11.4686 15.1084C11.3903 15.2818 11.2646 15.4295 11.106 15.5346C10.9473 15.6396 10.7623 15.6977 10.572 15.7021H6.71861C5.45392 15.7021 5.4658 13.6003 6.76611 13.624L11.243 14.5325C11.2984 14.5517 11.3486 14.5837 11.3894 14.6259C11.4302 14.6681 11.4605 14.7193 11.4778 14.7753C11.4951 14.8314 11.499 14.8908 11.4892 14.9486C11.4793 15.0065 11.456 15.0612 11.4211 15.1084H11.4686Z" fill="black"/>
</svg>
