<svg width="28" height="28" viewBox="0 0 28 28" fill="none" xmlns="http://www.w3.org/2000/svg">
<path d="M26.2501 12.5956H23.5988C23.4827 12.5956 23.3715 12.6417 23.2894 12.7238C23.2074 12.8058 23.1613 12.9171 23.1613 13.0331V13.8775H22.7501L22.2863 11.69C22.1179 11.0906 21.7566 10.5634 21.2584 10.1901C20.7601 9.81679 20.1526 9.61816 19.5301 9.62499H15.8113V7.17499H18.1432C18.4202 7.68266 18.8227 8.1108 19.3124 8.41849C19.802 8.72623 20.3624 8.90324 20.9399 8.93264C21.5174 8.96204 22.0929 8.84282 22.6112 8.58645C23.1296 8.33007 23.5736 7.94503 23.9007 7.46811C23.9598 7.37799 23.9835 7.26922 23.9674 7.16265C23.9513 7.05607 23.8963 6.95921 23.8132 6.89061C23.7337 6.8291 23.6378 6.79257 23.5376 6.78561H21.6957L21.0001 5.58686L21.6957 4.37501H23.5376C23.6378 4.36807 23.7337 4.33152 23.8132 4.27001C23.8963 4.20143 23.9513 4.10457 23.9674 3.998C23.9835 3.89142 23.9598 3.78264 23.9007 3.6925C23.5736 3.21562 23.1296 2.83059 22.6112 2.57419C22.0929 2.31779 21.5174 2.1986 20.9399 2.22801C20.3624 2.25741 19.802 2.43443 19.3124 2.74214C18.8227 3.04986 18.4202 3.47799 18.1432 3.98563H9.85693C9.57872 3.47876 9.17522 3.05168 8.68495 2.74519C8.19469 2.43869 7.63399 2.263 7.05649 2.23492C6.47899 2.20683 5.9039 2.32728 5.3862 2.58476C4.86851 2.84224 4.4255 3.22815 4.09941 3.70563C4.04078 3.79627 4.01773 3.90538 4.03469 4.01198C4.05165 4.11859 4.10743 4.21516 4.19129 4.28313C4.26871 4.34527 4.36346 4.38194 4.46255 4.38811H6.3088L7.00005 5.58686L6.3088 6.78561H4.46255C4.36346 6.79182 4.26871 6.82849 4.19129 6.89061C4.10743 6.9586 4.05165 7.05516 4.03469 7.16177C4.01773 7.26839 4.04078 7.37751 4.09941 7.46811C5.4338 9.55499 8.75443 9.38436 9.85693 7.17499H12.1888V9.62499H8.47005C7.84364 9.62074 7.23346 9.82405 6.73484 10.2032C6.23618 10.5823 5.87712 11.1159 5.7138 11.7206L5.25443 13.9081H4.8388V13.0331C4.8388 12.9171 4.79269 12.8058 4.71066 12.7238C4.62858 12.6417 4.51733 12.5956 4.4013 12.5956H1.75004C1.634 12.5956 1.52272 12.6417 1.44068 12.7238C1.35863 12.8058 1.31254 12.9171 1.31254 13.0331V14.7087C1.31119 14.8136 1.34755 14.9155 1.415 14.9958C1.48246 15.0761 1.57651 15.1295 1.68004 15.1462L4.32691 15.5837C4.39028 15.5947 4.45525 15.5915 4.51724 15.5745C4.57923 15.5575 4.63672 15.527 4.68559 15.4852C4.73446 15.4434 4.77353 15.3914 4.8 15.3328C4.82647 15.2742 4.83972 15.2105 4.8388 15.1462V14.7525H5.07068L4.81255 15.9206C4.33427 16.1609 3.92577 16.5201 3.62623 16.9637C3.32668 17.4072 3.14614 17.9203 3.10191 18.4537C3.10191 18.48 2.87441 20.9694 2.88316 20.9956C2.89191 21.0219 2.88316 23.4806 2.88316 23.4981V24.3731C2.88432 24.7495 3.03464 25.11 3.30116 25.3757C3.56769 25.6414 3.92869 25.7907 4.30504 25.7906H6.73755C7.11389 25.7907 7.47487 25.6414 7.7414 25.3757C8.00792 25.11 8.15825 24.7495 8.15943 24.3731V23.9356H19.8407V24.3731C19.8418 24.7495 19.9921 25.11 20.2587 25.3757C20.5252 25.6414 20.8862 25.7907 21.2626 25.7906H23.6863C24.0626 25.7907 24.4236 25.6414 24.6901 25.3757C24.9567 25.11 25.107 24.7495 25.1082 24.3731V23.4981C25.1082 23.4719 25.1082 21.0175 25.1082 20.9956C25.1082 20.9737 24.8807 18.48 24.8894 18.4537C24.8461 17.9212 24.6668 17.4087 24.3688 16.9652C24.0709 16.5217 23.6642 16.1621 23.1876 15.9206L22.9426 14.7525H23.1744V15.1462C23.1735 15.2105 23.1867 15.2742 23.2132 15.3328C23.2397 15.3914 23.2787 15.4434 23.3276 15.4852C23.3765 15.527 23.434 15.5575 23.4959 15.5745C23.5579 15.5915 23.623 15.5947 23.6863 15.5837L26.3113 15.1462C26.4148 15.1295 26.5089 15.0761 26.5763 14.9958C26.6438 14.9155 26.6801 14.8136 26.6788 14.7087V13.0331C26.6788 12.9186 26.6339 12.8086 26.5538 12.7268C26.4736 12.645 26.3645 12.5979 26.2501 12.5956ZM13.0638 7.17499H14.9363V9.62499H13.0638V7.17499ZM10.1238 20.055C9.995 20.3085 9.79839 20.5212 9.55584 20.6695C9.31329 20.8178 9.03434 20.8959 8.75005 20.895H6.08568C5.66852 20.8718 5.2777 20.6838 4.99915 20.3725C4.72059 20.0611 4.57713 19.6518 4.60037 19.2347C4.62355 18.8176 4.8115 18.4267 5.12287 18.1482C5.43424 17.8696 5.84352 17.7262 6.26068 17.7494L9.4238 18.375C9.59705 18.4151 9.75832 18.496 9.89416 18.6108C10.03 18.7256 10.1365 18.8712 10.205 19.0353C10.2733 19.1995 10.3017 19.3777 10.2876 19.555C10.2735 19.7323 10.2173 19.9037 10.1238 20.055ZM16.7607 23.0606H11.2394V22.2294H16.7607V23.0606ZM22.1376 20.8731H19.4557C19.1924 20.8752 18.9331 20.809 18.703 20.681C18.473 20.5529 18.2801 20.3674 18.1432 20.1425C18.0337 19.9906 17.9637 19.814 17.9392 19.6283C17.9147 19.4427 17.9366 19.254 18.0029 19.0789C18.0692 18.9038 18.1779 18.7479 18.3191 18.6251C18.4604 18.5022 18.6299 18.4163 18.8126 18.375L21.9757 17.7362H22.0238C24.1019 17.6312 24.2069 20.8337 22.1376 20.895V20.8731ZM6.24755 15.5837H5.81005L6.56255 11.9044C6.68308 11.4939 6.93495 11.1342 7.27948 10.8805C7.62402 10.6269 8.04222 10.4932 8.47005 10.5H19.5301C19.955 10.4918 20.3711 10.6224 20.7153 10.8718C21.0595 11.1212 21.313 11.476 21.4376 11.8825L22.2163 15.5837H6.24755Z" fill="black"/>
<path d="M22.1068 18.6112L18.9743 19.25C18.7425 19.3244 18.7993 19.5737 18.9131 19.7181C18.9695 19.8115 19.0491 19.8888 19.1442 19.9424C19.2392 19.9961 19.3465 20.0243 19.4556 20.0244H22.1375C22.9862 20.0069 22.9862 18.5981 22.1068 18.6112Z" fill="black"/>
<path d="M9.24872 19.25L6.12497 18.6112C5.24997 18.6112 5.24997 20.0068 6.09435 20.02H8.74997C8.88044 20.0161 9.00709 19.9749 9.11489 19.9012C9.22269 19.8275 9.30709 19.7245 9.3581 19.6043C9.37831 19.5749 9.39165 19.5413 9.39704 19.5061C9.40246 19.4708 9.39979 19.4348 9.38925 19.4006C9.37875 19.3665 9.36064 19.3353 9.33627 19.3092C9.31194 19.2831 9.28197 19.2628 9.24872 19.25Z" fill="black"/>
</svg>
