<svg width="38" height="38" viewBox="0 0 38 38" fill="none" xmlns="http://www.w3.org/2000/svg">
<path d="M36.2188 1.1875H1.78125C1.62378 1.1875 1.47276 1.25006 1.3614 1.3614C1.25006 1.47276 1.1875 1.62378 1.1875 1.78125V36.2188C1.1875 36.3762 1.25006 36.5273 1.3614 36.6386C1.47276 36.7499 1.62378 36.8125 1.78125 36.8125H36.2188C36.3762 36.8125 36.5273 36.7499 36.6386 36.6386C36.7499 36.5273 36.8125 36.3762 36.8125 36.2188V1.78125C36.8125 1.62378 36.7499 1.47276 36.6386 1.3614C36.5273 1.25006 36.3762 1.1875 36.2188 1.1875ZM16.0312 2.375H21.9688V11.3584L19.3266 9.60094C19.2303 9.53521 19.1166 9.50006 19 9.50006C18.8834 9.50006 18.7697 9.53521 18.6734 9.60094L16.0312 11.3584V2.375ZM2.375 2.375H14.8438V8.3125H2.375V2.375ZM35.625 35.625H2.375V9.5H14.8438V12.4688C14.8443 12.5757 14.8737 12.6805 14.9289 12.772C14.9841 12.8637 15.063 12.9386 15.1572 12.9891C15.2515 13.0396 15.3576 13.0637 15.4644 13.0588C15.5712 13.0539 15.6748 13.0203 15.7641 12.9616L19 10.8063L22.2359 12.9616C22.3252 13.0203 22.4288 13.0539 22.5356 13.0588C22.6424 13.0637 22.7485 13.0396 22.8428 12.9891C22.937 12.9386 23.0159 12.8637 23.0711 12.772C23.1263 12.6805 23.1557 12.5757 23.1562 12.4688V9.5H35.625V35.625ZM35.625 8.3125H23.1562V2.375H35.625V8.3125Z" fill="black"/>
<path d="M34.0695 28.4703L30.5723 23.4175L30.6079 23.3819C31.5145 22.4741 32.2398 21.4021 32.7454 20.2231L32.8167 20.0569C33.0018 19.6255 33.0535 19.1486 32.9651 18.6876C32.8767 18.2266 32.6523 17.8026 32.3206 17.4704C31.989 17.1382 31.5655 16.9128 31.1046 16.8235C30.6438 16.7342 30.1668 16.785 29.7351 16.9694L29.5689 17.0406C28.3879 17.5454 27.3155 18.2732 26.4101 19.184L26.3745 19.2197L21.3217 15.7225C21.208 15.6439 21.0705 15.6075 20.9329 15.6194C20.7952 15.6313 20.666 15.6909 20.5676 15.7878L19.3029 17.0525C19.1923 17.1637 19.1303 17.3142 19.1303 17.4711C19.1303 17.6279 19.1923 17.7784 19.3029 17.8897L23.5067 22.0875L20.5676 25.0265C20.5427 25.0495 20.5208 25.0754 20.5023 25.1037L20.4667 25.1512L17.4742 23.655C17.3622 23.5986 17.2352 23.5792 17.1114 23.5995C16.9878 23.6198 16.8736 23.6787 16.7854 23.7678L15.5267 25.0265C15.4161 25.1378 15.354 25.2883 15.354 25.4451C15.354 25.602 15.4161 25.7525 15.5267 25.8637L18.4657 28.8028L20.9832 31.3262L23.9223 34.2653C24.0349 34.3757 24.1862 34.4375 24.3439 34.4375C24.5015 34.4375 24.6528 34.3757 24.7654 34.2653L26.0242 33.0065C26.1116 32.9174 26.1695 32.8033 26.1896 32.68C26.2098 32.5567 26.1914 32.4302 26.137 32.3178L24.6348 29.3253L24.6882 29.2897C24.7166 29.2711 24.7425 29.2492 24.7654 29.2244L27.7045 26.2853L31.9023 30.4831C31.9565 30.5395 32.0215 30.5843 32.0934 30.6149C32.1653 30.6456 32.2427 30.6614 32.3209 30.6614C32.3991 30.6614 32.4764 30.6456 32.5484 30.6149C32.6203 30.5843 32.6853 30.5395 32.7395 30.4831L33.9982 29.2244C34.0972 29.1273 34.1587 28.9984 34.1717 28.8603C34.1847 28.7223 34.1485 28.5842 34.0695 28.4703ZM20.5676 17.4681L21.0545 16.9812L25.5195 20.0747L24.6882 20.9L24.3439 21.2503L20.5676 17.4681ZM16.7854 25.4481L17.3257 24.9078L19.766 26.1309L18.8101 27.4728L16.7854 25.4481ZM24.8782 32.4662L24.3439 33.0065L22.3192 30.9819L23.661 30.0259L24.8782 32.4662ZM27.2829 25.0265L23.9579 28.3515L21.4701 30.1269L20.9832 29.6459L23.0851 27.544L22.242 26.7069L20.146 28.8028L19.6592 28.3219L21.4404 25.834L25.4245 21.85L27.2473 20.0212C28.0506 19.2222 28.9974 18.5816 30.0379 18.1331L30.2042 18.0619C30.4176 17.9715 30.6532 17.947 30.8806 17.9914C31.1081 18.0358 31.3172 18.147 31.481 18.3109C31.645 18.4748 31.7562 18.6839 31.8005 18.9113C31.8449 19.1388 31.8204 19.3743 31.7301 19.5878L31.6589 19.754C31.2103 20.796 30.5675 21.7431 29.7648 22.5447L29.3848 22.9306L27.2829 25.0265ZM32.3179 29.2244L28.5417 25.4481L29.7173 24.2725L32.8107 28.7375L32.3179 29.2244Z" fill="black"/>
<path d="M30.2216 18.7285L29.3818 19.5682L30.2216 20.4079L31.0613 19.5682L30.2216 18.7285Z" fill="black"/>
<path d="M13.0625 28.5H11.875V33.25H13.0625V28.5Z" fill="black"/>
<path d="M10.6875 28.5H9.5V33.25H10.6875V28.5Z" fill="black"/>
<path d="M8.3125 28.5H7.125V33.25H8.3125V28.5Z" fill="black"/>
<path d="M5.9375 30.875H4.75V33.25H5.9375V30.875Z" fill="black"/>
<path d="M5.9375 28.5H4.75V29.6875H5.9375V28.5Z" fill="black"/>
</svg>
