<svg width="36" height="35" viewBox="0 0 36 35" fill="none" xmlns="http://www.w3.org/2000/svg">
<path d="M23.0052 2.75H7.16992C7.01245 2.75 6.86143 2.81256 6.75008 2.92391C6.63873 3.03526 6.57617 3.18628 6.57617 3.34375V10.1006C6.57617 10.2581 6.63873 10.4091 6.75008 10.5205C6.86143 10.6318 7.01245 10.6944 7.16992 10.6944H23.0052C23.1627 10.6944 23.3137 10.6318 23.4251 10.5205C23.5364 10.4091 23.599 10.2581 23.599 10.1006V3.34375C23.599 3.18628 23.5364 3.03526 23.4251 2.92391C23.3137 2.81256 23.1627 2.75 23.0052 2.75ZM22.4115 9.495H7.76367V3.9375H22.4115V9.495Z" fill="black"/>
<path d="M19.5024 12.3984H10.6733C10.5159 12.3984 10.3648 12.461 10.2535 12.5723C10.1421 12.6837 10.0796 12.8347 10.0796 12.9922C10.0796 13.1497 10.1421 13.3007 10.2535 13.412C10.3648 13.5234 10.5159 13.5859 10.6733 13.5859H19.5024C19.6599 13.5859 19.8109 13.5234 19.9222 13.412C20.0336 13.3007 20.0962 13.1497 20.0962 12.9922C20.0962 12.8347 20.0336 12.6837 19.9222 12.5723C19.8109 12.461 19.6599 12.3984 19.5024 12.3984Z" fill="black"/>
<path d="M19.5024 14.7378H10.6733C10.5159 14.7378 10.3648 14.8003 10.2535 14.9117C10.1421 15.023 10.0796 15.1741 10.0796 15.3315C10.0796 15.489 10.1421 15.64 10.2535 15.7514C10.3648 15.8627 10.5159 15.9253 10.6733 15.9253H19.5024C19.6599 15.9253 19.8109 15.8627 19.9222 15.7514C20.0336 15.64 20.0962 15.489 20.0962 15.3315C20.0962 15.1741 20.0336 15.023 19.9222 14.9117C19.8109 14.8003 19.6599 14.7378 19.5024 14.7378Z" fill="black"/>
<path d="M15.0904 18.4961C13.0657 18.4961 12.1929 23.917 12.1929 24.778C12.1752 25.1691 12.2369 25.5598 12.3744 25.9264C12.5119 26.293 12.7222 26.628 12.9928 26.911C13.2633 27.1941 13.5884 27.4194 13.9484 27.5733C14.3084 27.7272 14.6959 27.8066 15.0874 27.8066C15.479 27.8066 15.8665 27.7272 16.2265 27.5733C16.5865 27.4194 16.9116 27.1941 17.1821 26.911C17.4527 26.628 17.663 26.293 17.8005 25.9264C17.938 25.5598 17.9997 25.1691 17.982 24.778C17.9998 23.917 17.1092 18.4961 15.0904 18.4961ZM15.0904 26.4998C14.6369 26.4998 14.2019 26.3197 13.8813 25.999C13.5606 25.6783 13.3804 25.2434 13.3804 24.7898C13.3804 23.2817 14.4551 19.8261 15.0845 19.6955C15.7198 19.8261 16.7945 23.258 16.7945 24.7898C16.7945 25.2423 16.6151 25.6764 16.2957 25.9969C15.9763 26.3174 15.5429 26.4983 15.0904 26.4998Z" fill="black"/>
<path d="M35.0703 7.1259L32.7844 4.57277C32.6789 4.45546 32.5311 4.38486 32.3735 4.37651C32.216 4.36816 32.0615 4.42274 31.9442 4.52824C31.8269 4.63375 31.7563 4.78154 31.748 4.9391C31.7396 5.09666 31.7942 5.25108 31.8997 5.3684L33.9481 7.66027C33.6835 7.6091 33.4109 7.61648 33.1494 7.68189C32.8879 7.74731 32.6439 7.86917 32.4346 8.03892C32.2252 8.20868 32.0555 8.4222 31.9375 8.66451C31.8195 8.90682 31.7559 9.17203 31.7512 9.44152V11.2228C31.7512 11.6952 31.9389 12.1483 32.273 12.4823C32.607 12.8164 33.0601 13.004 33.5325 13.004H34.0312V30.6562C34.0312 30.9129 33.9293 31.1591 33.7478 31.3406C33.5663 31.5221 33.3201 31.624 33.0634 31.624C32.8068 31.624 32.5606 31.5221 32.3791 31.3406C32.1976 31.1591 32.0956 30.9129 32.0956 30.6562V18.5793C32.0944 17.8093 31.8234 17.064 31.3299 16.4729C30.8364 15.8818 30.1515 15.4821 29.3941 15.3434V12.9684C29.3941 12.8109 29.3315 12.6599 29.2202 12.5486C29.1088 12.4372 28.9578 12.3746 28.8003 12.3746H26.2116V2.97559C26.2116 2.18822 25.8988 1.43311 25.342 0.876363C24.7853 0.319614 24.0302 0.00683594 23.2428 0.00683594H6.95031C6.16295 0.00683594 5.40784 0.319614 4.85109 0.876363C4.29434 1.43311 3.98156 2.18822 3.98156 2.97559V12.3984H1.375C1.21753 12.3984 1.06651 12.461 0.955155 12.5723C0.843806 12.6837 0.78125 12.8347 0.78125 12.9921V18.7812C0.78125 18.9387 0.843806 19.0897 0.955155 19.2011C1.06651 19.3124 1.21753 19.375 1.375 19.375H3.96375V30.9887H2.77625C2.61878 30.9887 2.46775 31.0513 2.35641 31.1626C2.24506 31.274 2.1825 31.425 2.1825 31.5825V33.4112C2.1825 33.5687 2.24506 33.7197 2.35641 33.8311C2.46775 33.9424 2.61878 34.005 2.77625 34.005H27.4109C27.5684 34.005 27.7194 33.9424 27.8308 33.8311C27.9421 33.7197 28.0047 33.5687 28.0047 33.4112V31.5825C28.0047 31.425 27.9421 31.274 27.8308 31.1626C27.7194 31.0513 27.5684 30.9887 27.4109 30.9887H26.2234V19.375H28.8122C28.9697 19.375 29.1207 19.3124 29.232 19.2011C29.3434 19.0897 29.4059 18.9387 29.4059 18.7812V16.5843C29.8419 16.7093 30.2253 16.9727 30.4984 17.3347C30.7716 17.6967 30.9195 18.1377 30.92 18.5912V30.6562C30.9603 31.1987 31.2043 31.7058 31.603 32.0759C32.0016 32.446 32.5254 32.6517 33.0694 32.6517C33.6133 32.6517 34.1372 32.446 34.5358 32.0759C34.9344 31.7058 35.1784 31.1987 35.2188 30.6562V8.25402C35.2188 8.03434 35.3019 7.30402 35.0703 7.1259ZM1.96875 18.1875V13.5859H3.96375V18.1875H1.96875ZM26.8172 32.8175H3.35813V32.1762H26.8172V32.8175ZM5.15125 30.9887C5.15125 22.8781 5.15125 11.0506 5.15125 2.97559C5.15125 2.50317 5.33892 2.0501 5.67297 1.71605C6.00702 1.382 6.46008 1.19434 6.9325 1.19434H23.2309C23.7034 1.19434 24.1564 1.382 24.4905 1.71605C24.8245 2.0501 25.0122 2.50317 25.0122 2.97559V30.9887H5.15125ZM28.2066 18.1875H26.2116V13.5859H28.2066V18.1875ZM33.5503 11.7809C33.3928 11.7809 33.2418 11.7183 33.1305 11.607C33.0191 11.4956 32.9566 11.3446 32.9566 11.1871V9.4059C32.9566 9.24843 33.0191 9.0974 33.1305 8.98605C33.2418 8.87471 33.3928 8.81215 33.5503 8.81215H34.0312V11.7334L33.5503 11.7809Z" fill="black"/>
</svg>
