<svg width="121" height="27" viewBox="0 0 121 27" fill="none" xmlns="http://www.w3.org/2000/svg">
<path d="M6.79688 22.2344C5.5625 22.2344 4.5 21.9844 3.60938 21.4844C2.72396 20.9792 2.04167 20.2656 1.5625 19.3437C1.08333 18.4167 0.84375 17.3203 0.84375 16.0547C0.84375 14.8203 1.08333 13.737 1.5625 12.8047C2.04167 11.8724 2.71615 11.1458 3.58594 10.625C4.46094 10.1042 5.48698 9.84375 6.66406 9.84375C7.45573 9.84375 8.19271 9.97135 8.875 10.2266C9.5625 10.4766 10.1615 10.8542 10.6719 11.3594C11.1875 11.8646 11.5885 12.5 11.875 13.2656C12.1615 14.026 12.3047 14.9167 12.3047 15.9375V16.8516H2.17188V14.7891H9.17188C9.17188 14.3099 9.06771 13.8854 8.85938 13.5156C8.65104 13.1458 8.36198 12.8568 7.99219 12.6484C7.6276 12.4349 7.20313 12.3281 6.71875 12.3281C6.21354 12.3281 5.76563 12.4453 5.375 12.6797C4.98958 12.9089 4.6875 13.2187 4.46875 13.6094C4.25 13.9948 4.13802 14.4245 4.13281 14.8984V16.8594C4.13281 17.4531 4.24219 17.9661 4.46094 18.3984C4.6849 18.8307 5 19.1641 5.40625 19.3984C5.8125 19.6328 6.29427 19.75 6.85156 19.75C7.22135 19.75 7.5599 19.6979 7.86719 19.5938C8.17448 19.4896 8.4375 19.3333 8.65625 19.125C8.875 18.9167 9.04167 18.6615 9.15625 18.3594L12.2344 18.5625C12.0781 19.3021 11.7578 19.9479 11.2734 20.5C10.7943 21.0469 10.1745 21.474 9.41406 21.7813C8.65885 22.0833 7.78646 22.2344 6.79688 22.2344ZM29.2422 14C29.2422 15.7448 28.9115 17.2292 28.25 18.4531C27.5938 19.6771 26.6979 20.612 25.5625 21.2578C24.4323 21.8984 23.1615 22.2187 21.75 22.2187C20.3281 22.2187 19.0521 21.8958 17.9219 21.25C16.7917 20.6042 15.8984 19.6693 15.2422 18.4453C14.5859 17.2214 14.2578 15.7396 14.2578 14C14.2578 12.2552 14.5859 10.7708 15.2422 9.54688C15.8984 8.32292 16.7917 7.39062 17.9219 6.75C19.0521 6.10417 20.3281 5.78125 21.75 5.78125C23.1615 5.78125 24.4323 6.10417 25.5625 6.75C26.6979 7.39062 27.5938 8.32292 28.25 9.54688C28.9115 10.7708 29.2422 12.2552 29.2422 14ZM25.8125 14C25.8125 12.8698 25.6432 11.9167 25.3047 11.1406C24.9714 10.3646 24.5 9.77604 23.8906 9.375C23.2813 8.97396 22.5677 8.77344 21.75 8.77344C20.9323 8.77344 20.2188 8.97396 19.6094 9.375C19 9.77604 18.526 10.3646 18.1875 11.1406C17.8542 11.9167 17.6875 12.8698 17.6875 14C17.6875 15.1302 17.8542 16.0833 18.1875 16.8594C18.526 17.6354 19 18.224 19.6094 18.625C20.2188 19.026 20.9323 19.2266 21.75 19.2266C22.5677 19.2266 23.2813 19.026 23.8906 18.625C24.5 18.224 24.9714 17.6354 25.3047 16.8594C25.6432 16.0833 25.8125 15.1302 25.8125 14ZM31.6855 26.5V10H34.9668V12.0156H35.1152C35.2611 11.6927 35.472 11.3646 35.748 11.0312C36.0293 10.6927 36.3939 10.4115 36.8418 10.1875C37.2949 9.95833 37.8574 9.84375 38.5293 9.84375C39.4043 9.84375 40.2116 10.0729 40.9512 10.5313C41.6908 10.9844 42.2819 11.6693 42.7246 12.5859C43.1673 13.4974 43.3887 14.6406 43.3887 16.0156C43.3887 17.3542 43.1725 18.4844 42.7402 19.4062C42.3132 20.3229 41.7298 21.0182 40.9902 21.4922C40.2559 21.9609 39.4329 22.1953 38.5215 22.1953C37.8757 22.1953 37.3262 22.0885 36.873 21.875C36.4251 21.6615 36.0579 21.3932 35.7715 21.0703C35.485 20.7422 35.2663 20.4115 35.1152 20.0781H35.0137V26.5H31.6855ZM34.9434 16C34.9434 16.7135 35.0423 17.3359 35.2402 17.8672C35.4382 18.3984 35.7246 18.8125 36.0996 19.1094C36.4746 19.401 36.9303 19.5469 37.4668 19.5469C38.0085 19.5469 38.4668 19.3984 38.8418 19.1016C39.2168 18.7995 39.5007 18.3828 39.6934 17.8516C39.8913 17.3151 39.9902 16.6979 39.9902 16C39.9902 15.3073 39.8939 14.6979 39.7012 14.1719C39.5085 13.6458 39.2246 13.2344 38.8496 12.9375C38.4746 12.6406 38.0137 12.4922 37.4668 12.4922C36.9251 12.4922 36.4668 12.6354 36.0918 12.9219C35.722 13.2083 35.4382 13.6146 35.2402 14.1406C35.0423 14.6667 34.9434 15.2865 34.9434 16ZM55.5918 13.4219L52.5449 13.6094C52.4928 13.349 52.3809 13.1146 52.209 12.9062C52.0371 12.6927 51.8105 12.5234 51.5293 12.3984C51.2533 12.2682 50.9225 12.2031 50.5371 12.2031C50.0215 12.2031 49.5866 12.3125 49.2324 12.5312C48.8783 12.7448 48.7012 13.0312 48.7012 13.3906C48.7012 13.6771 48.8158 13.9193 49.0449 14.1172C49.2741 14.3151 49.6673 14.474 50.2246 14.5937L52.3965 15.0312C53.5632 15.2708 54.4329 15.6562 55.0059 16.1875C55.5788 16.7187 55.8652 17.4167 55.8652 18.2812C55.8652 19.0677 55.6335 19.7578 55.1699 20.3516C54.7116 20.9453 54.0814 21.4089 53.2793 21.7422C52.4824 22.0703 51.5632 22.2344 50.5215 22.2344C48.9329 22.2344 47.6673 21.9036 46.7246 21.2422C45.7871 20.5755 45.2376 19.6693 45.0762 18.5234L48.3496 18.3516C48.4486 18.8359 48.6882 19.2057 49.0684 19.4609C49.4486 19.7109 49.9355 19.8359 50.5293 19.8359C51.1126 19.8359 51.5814 19.724 51.9355 19.5C52.2949 19.2708 52.4772 18.9766 52.4824 18.6172C52.4772 18.3151 52.3496 18.0677 52.0996 17.875C51.8496 17.6771 51.4642 17.526 50.9434 17.4219L48.8652 17.0078C47.6934 16.7734 46.821 16.3672 46.248 15.7891C45.6803 15.2109 45.3965 14.474 45.3965 13.5781C45.3965 12.8073 45.6048 12.1432 46.0215 11.5859C46.4434 11.0286 47.0345 10.599 47.7949 10.2969C48.5605 9.99479 49.4564 9.84375 50.4824 9.84375C51.998 9.84375 53.1908 10.1641 54.0605 10.8047C54.9355 11.4453 55.446 12.3177 55.5918 13.4219Z" fill="black"/>
<path d="M66.6733 22V8.18182H74.9588V9.66619H68.3466V14.3352H74.3381V15.8196H68.3466V22H66.6733ZM80.6585 22.2429C80.0017 22.2429 79.4057 22.1192 78.8705 21.8718C78.3352 21.6199 77.9101 21.2578 77.5953 20.7855C77.2804 20.3087 77.123 19.733 77.123 19.0582C77.123 18.4645 77.2399 17.9832 77.4738 17.6143C77.7077 17.241 78.0203 16.9486 78.4117 16.7372C78.803 16.5258 79.2348 16.3684 79.7071 16.2649C80.1839 16.157 80.663 16.0715 81.1443 16.0085C81.774 15.9276 82.2845 15.8668 82.6759 15.8263C83.0717 15.7814 83.3596 15.7071 83.5395 15.6037C83.7239 15.5002 83.8161 15.3203 83.8161 15.0639V15.0099C83.8161 14.3442 83.634 13.8269 83.2696 13.4581C82.9098 13.0893 82.3633 12.9048 81.6301 12.9048C80.8699 12.9048 80.2739 13.0713 79.8421 13.4041C79.4102 13.737 79.1066 14.0923 78.9312 14.4702L77.4198 13.9304C77.6897 13.3007 78.0496 12.8104 78.4994 12.4595C78.9537 12.1042 79.4485 11.8568 79.9838 11.7173C80.5235 11.5734 81.0543 11.5014 81.5761 11.5014C81.9089 11.5014 82.2913 11.5419 82.7231 11.6229C83.1594 11.6993 83.58 11.859 83.9848 12.1019C84.3941 12.3448 84.7338 12.7114 85.0036 13.2017C85.2735 13.692 85.4085 14.3487 85.4085 15.1719V22H83.8161V20.5966H83.7352C83.6272 20.8215 83.4473 21.0621 83.1954 21.3185C82.9435 21.5749 82.6084 21.7931 82.1901 21.973C81.7718 22.1529 81.2612 22.2429 80.6585 22.2429ZM80.9014 20.8125C81.5311 20.8125 82.0619 20.6888 82.4937 20.4414C82.93 20.194 83.2584 19.8746 83.4788 19.4833C83.7037 19.092 83.8161 18.6804 83.8161 18.2486V16.7912C83.7487 16.8722 83.6002 16.9464 83.3708 17.0138C83.1459 17.0768 82.885 17.133 82.5882 17.1825C82.2958 17.2275 82.0102 17.268 81.7313 17.304C81.4569 17.3355 81.2342 17.3625 81.0633 17.3849C80.6495 17.4389 80.2626 17.5266 79.9028 17.6481C79.5474 17.765 79.2596 17.9427 79.0392 18.1811C78.8232 18.415 78.7153 18.7344 78.7153 19.1392C78.7153 19.6925 78.92 20.1108 79.3293 20.3942C79.7431 20.6731 80.2671 20.8125 80.9014 20.8125ZM88.5307 22V8.18182H90.123V13.2827H90.258C90.3749 13.1027 90.5369 12.8733 90.7438 12.5945C90.9552 12.3111 91.2566 12.0592 91.6479 11.8388C92.0437 11.6139 92.579 11.5014 93.2537 11.5014C94.1264 11.5014 94.8955 11.7196 95.5613 12.1559C96.227 12.5922 96.7465 13.2107 97.1199 14.0114C97.4932 14.812 97.6799 15.7566 97.6799 16.8452C97.6799 17.9427 97.4932 18.8941 97.1199 19.6992C96.7465 20.4999 96.2292 21.1206 95.568 21.5614C94.9068 21.9978 94.1444 22.2159 93.2807 22.2159C92.615 22.2159 92.082 22.1057 91.6816 21.8853C91.2813 21.6604 90.9732 21.4062 90.7573 21.1229C90.5414 20.835 90.3749 20.5966 90.258 20.4077H90.0691V22H88.5307ZM90.0961 16.8182C90.0961 17.6009 90.2108 18.2913 90.4402 18.8896C90.6696 19.4833 91.0047 19.9489 91.4455 20.2862C91.8863 20.6191 92.4261 20.7855 93.0648 20.7855C93.7305 20.7855 94.286 20.6101 94.7314 20.2592C95.1812 19.9039 95.5185 19.4271 95.7434 18.8288C95.9728 18.2261 96.0875 17.5559 96.0875 16.8182C96.0875 16.0895 95.9751 15.4328 95.7502 14.848C95.5298 14.2588 95.1947 13.7932 94.7449 13.4513C94.2995 13.105 93.7395 12.9318 93.0648 12.9318C92.4171 12.9318 91.8728 13.096 91.432 13.4244C90.9912 13.7482 90.6583 14.2025 90.4334 14.7873C90.2085 15.3675 90.0961 16.0445 90.0961 16.8182ZM100.116 22V11.6364H101.654V13.2017H101.762C101.951 12.6889 102.293 12.2728 102.787 11.9535C103.282 11.6341 103.84 11.4744 104.461 11.4744C104.578 11.4744 104.724 11.4767 104.899 11.4812C105.075 11.4857 105.207 11.4924 105.297 11.5014V13.1207C105.243 13.1072 105.12 13.087 104.926 13.06C104.737 13.0285 104.537 13.0128 104.326 13.0128C103.822 13.0128 103.372 13.1185 102.976 13.3299C102.585 13.5368 102.275 13.8247 102.045 14.1935C101.82 14.5579 101.708 14.974 101.708 15.4418V22H100.116ZM107.185 22V11.6364H108.777V22H107.185ZM107.995 9.90909C107.684 9.90909 107.417 9.80339 107.192 9.59197C106.971 9.38056 106.861 9.12642 106.861 8.82955C106.861 8.53267 106.971 8.27853 107.192 8.06712C107.417 7.85571 107.684 7.75 107.995 7.75C108.305 7.75 108.57 7.85571 108.791 8.06712C109.016 8.27853 109.128 8.53267 109.128 8.82955C109.128 9.12642 109.016 9.38056 108.791 9.59197C108.57 9.80339 108.305 9.90909 107.995 9.90909ZM115.904 22.2159C114.932 22.2159 114.096 21.9865 113.394 21.5277C112.692 21.0689 112.153 20.4369 111.775 19.6317C111.397 18.8266 111.208 17.9067 111.208 16.8722C111.208 15.8196 111.401 14.8907 111.788 14.0856C112.18 13.2759 112.724 12.6439 113.421 12.1896C114.123 11.7308 114.941 11.5014 115.877 11.5014C116.606 11.5014 117.262 11.6364 117.847 11.9062C118.432 12.1761 118.911 12.554 119.284 13.0398C119.658 13.5256 119.889 14.0923 119.979 14.7401H118.387C118.265 14.2678 117.996 13.8494 117.577 13.4851C117.163 13.1162 116.606 12.9318 115.904 12.9318C115.283 12.9318 114.739 13.0937 114.271 13.4176C113.808 13.737 113.446 14.189 113.185 14.7738C112.928 15.354 112.8 16.0355 112.8 16.8182C112.8 17.6188 112.926 18.3161 113.178 18.9098C113.434 19.5036 113.794 19.9646 114.258 20.293C114.725 20.6213 115.274 20.7855 115.904 20.7855C116.318 20.7855 116.693 20.7135 117.031 20.5696C117.368 20.4257 117.654 20.2188 117.888 19.9489C118.122 19.679 118.288 19.3551 118.387 18.9773H119.979C119.889 19.589 119.667 20.14 119.311 20.6303C118.96 21.1161 118.495 21.503 117.915 21.7908C117.339 22.0742 116.669 22.2159 115.904 22.2159Z" fill="black"/>
<path d="M51.3381 4.45597V3.90909H55.1562V4.45597H53.5554V9H52.9389V4.45597H51.3381ZM56.1077 3.90909H56.8435L58.5736 8.13494H58.6333L60.3634 3.90909H61.0992V9H60.5225V5.1321H60.4727L58.8818 9H58.325L56.7341 5.1321H56.6844V9H56.1077V3.90909Z" fill="black"/>
</svg>
