<svg width="38" height="38" viewBox="0 0 38 38" fill="none" xmlns="http://www.w3.org/2000/svg">
<path d="M7.125 3.5625C7.12536 3.24766 7.25059 2.94583 7.47323 2.72321C7.69582 2.50059 7.99766 2.37536 8.3125 2.375H8.90625C9.22109 2.37536 9.52293 2.50059 9.74552 2.72321C9.96817 2.94583 10.0934 3.24766 10.0938 3.5625C10.0945 4.19217 10.3449 4.79584 10.7901 5.24109C11.2354 5.68634 11.8391 5.93679 12.4688 5.9375H13.0625C13.6922 5.93679 14.2959 5.68634 14.7411 5.24109C15.1863 4.79584 15.4368 4.19217 15.4375 3.5625C15.4379 3.24766 15.5631 2.94583 15.7857 2.72321C16.0083 2.50059 16.3102 2.37536 16.625 2.375H17.2188C17.5336 2.37536 17.8354 2.50059 18.058 2.72321C18.2807 2.94583 18.4059 3.24766 18.4062 3.5625C18.407 4.19217 18.6574 4.79584 19.1026 5.24109C19.5479 5.68634 20.1516 5.93679 20.7812 5.9375H21.375C22.0047 5.93679 22.6084 5.68634 23.0536 5.24109C23.4988 4.79584 23.7493 4.19217 23.75 3.5625C23.7504 3.24766 23.8756 2.94583 24.0982 2.72321C24.3208 2.50059 24.6227 2.37536 24.9375 2.375H25.5312C25.8461 2.37536 26.1479 2.50059 26.3705 2.72321C26.5932 2.94583 26.7184 3.24766 26.7188 3.5625C26.7195 4.19217 26.9699 4.79584 27.4151 5.24109C27.8604 5.68634 28.4641 5.93679 29.0938 5.9375H29.6875C30.3172 5.93679 30.9209 5.68634 31.3661 5.24109C31.8113 4.79584 32.0618 4.19217 32.0625 3.5625C32.0629 3.24766 32.1881 2.94583 32.4107 2.72321C32.6333 2.50059 32.9352 2.37536 33.25 2.375H34.4375V1.1875H33.25C32.6203 1.18821 32.0166 1.43866 31.5714 1.88391C31.1262 2.32916 30.8757 2.93283 30.875 3.5625C30.8746 3.87734 30.7494 4.17917 30.5268 4.40179C30.3042 4.62441 30.0023 4.74964 29.6875 4.75H29.0938C28.7789 4.74964 28.4771 4.62441 28.2545 4.40179C28.0318 4.17917 27.9066 3.87734 27.9062 3.5625C27.9055 2.93283 27.6551 2.32916 27.2099 1.88391C26.7646 1.43866 26.1609 1.18821 25.5312 1.1875H24.9375C24.3078 1.18821 23.7041 1.43866 23.2589 1.88391C22.8137 2.32916 22.5632 2.93283 22.5625 3.5625C22.5621 3.87734 22.4369 4.17917 22.2143 4.40179C21.9917 4.62441 21.6898 4.74964 21.375 4.75H20.7812C20.4664 4.74964 20.1646 4.62441 19.942 4.40179C19.7193 4.17917 19.5941 3.87734 19.5938 3.5625C19.593 2.93283 19.3426 2.32916 18.8974 1.88391C18.4521 1.43866 17.8484 1.18821 17.2188 1.1875H16.625C15.9953 1.18821 15.3916 1.43866 14.9464 1.88391C14.5012 2.32916 14.2507 2.93283 14.25 3.5625C14.2496 3.87734 14.1244 4.17917 13.9018 4.40179C13.6792 4.62441 13.3773 4.74964 13.0625 4.75H12.4688C12.1539 4.74964 11.8521 4.62441 11.6295 4.40179C11.4068 4.17917 11.2816 3.87734 11.2812 3.5625C11.2805 2.93283 11.0301 2.32916 10.5849 1.88391C10.1396 1.43866 9.53592 1.18821 8.90625 1.1875H8.3125C7.68283 1.18821 7.07916 1.43866 6.63391 1.88391C6.18866 2.32916 5.93821 2.93283 5.9375 3.5625V5.9375H7.125V3.5625Z" fill="black"/>
<path d="M20.7812 11.2812H16.625V16.625H20.7812V11.2812ZM19.5938 15.4375H17.8125V12.4688H19.5938V15.4375Z" fill="black"/>
<path d="M26.125 11.2812H21.9688V16.625H26.125V11.2812ZM24.9375 15.4375H23.1562V12.4688H24.9375V15.4375Z" fill="black"/>
<path d="M26.125 17.8125H21.9688V23.1562H26.125V17.8125ZM24.9375 21.9688H23.1562V19H24.9375V21.9688Z" fill="black"/>
<path d="M35.0312 12.6605L30.875 10.998V14.6798L28.5 13.8316V8.3125H14.25V13.6562H13.0625C12.5902 13.6568 12.1375 13.8446 11.8035 14.1785C11.4696 14.5125 11.2818 14.9652 11.2812 15.4375V17.8125H9.13581L8.89289 7.125H3.57584L2.98209 33.25H2.96875C2.4965 33.2505 2.04374 33.4384 1.70981 33.7723C1.37587 34.1063 1.18803 34.559 1.1875 35.0312V36.8125H11.2812V35.0312C11.2807 34.559 11.0929 34.1063 10.759 33.7723C10.425 33.4384 9.97225 33.2505 9.5 33.25H9.48664L9.21678 21.375H14.25V26.125H12.4688V36.8125H36.8125V16.8003L35.0312 16.1642V12.6605ZM12.4688 15.4375C12.4689 15.2801 12.5315 15.1292 12.6429 15.0179C12.7542 14.9065 12.9051 14.8439 13.0625 14.8438H14.25V17.8125H12.4688V15.4375ZM4.73666 8.3125H7.73211L7.81308 11.875H4.6557L4.73666 8.3125ZM4.6287 13.0625H7.84002L7.97495 19H4.49377L4.6287 13.0625ZM4.46679 20.1875H8.00197L8.1369 26.125H4.33183L4.46679 20.1875ZM4.30485 27.3125H8.16391L8.29884 33.25H4.16991L4.30485 27.3125ZM9.5 34.4375C9.65742 34.4376 9.8083 34.5003 9.91963 34.6116C10.031 34.7229 10.0936 34.8738 10.0938 35.0312V35.625H2.375V35.0312C2.37518 34.8738 2.4378 34.7229 2.5491 34.6116C2.66042 34.5003 2.81133 34.4376 2.96875 34.4375H9.5ZM9.18977 20.1875L9.16282 19H17.2188C17.8484 19.0007 18.4521 19.2512 18.8974 19.6964C19.3426 20.1416 19.593 20.7453 19.5938 21.375V26.125H18.4062V21.9688C18.4057 21.4965 18.2179 21.0438 17.884 20.7098C17.55 20.3759 17.0973 20.188 16.625 20.1875H9.18977ZM17.2188 21.9688V26.125H15.4375V21.375H16.625C16.7824 21.3751 16.9333 21.4378 17.0446 21.5491C17.156 21.6604 17.2186 21.8113 17.2188 21.9688ZM23.1562 35.625H17.8125V31.4688H23.1562V35.625ZM27.3125 35.625H24.3438V30.2812H16.625V35.625H13.6562V27.3125H27.3125V35.625ZM27.3125 26.125H20.7812V21.375C20.7802 20.4305 20.4045 19.5249 19.7366 18.8571C19.0688 18.1892 18.1633 17.8135 17.2188 17.8125H15.4375V9.5H27.3125V26.125ZM32.0625 12.752L33.8438 13.4645V15.7401L32.0625 15.1039V12.752ZM32.6562 35.625H31.4688V33.8438H32.6562V35.625ZM32.6562 32.6562H31.4688V30.875H32.6562V32.6562ZM32.6562 29.6875H31.4688V27.9062H32.6562V29.6875ZM32.6562 26.7188H31.4688V24.9375H32.6562V26.7188ZM35.625 17.6372V35.625H33.8438V21.9688H32.6562V23.75H31.4688V21.9688H30.2812V35.625H28.5V15.0925L35.625 17.6372Z" fill="black"/>
<path d="M36.8125 1.1875H35.625V2.375H36.8125V1.1875Z" fill="black"/>
</svg>
